<?xml version="1.0" encoding="UTF-8" standalone="no"?>
<!-- Created with Inkscape (http://www.inkscape.org/) -->

<svg
   xmlns:dc="http://purl.org/dc/elements/1.1/"
   xmlns:cc="http://creativecommons.org/ns#"
   xmlns:rdf="http://www.w3.org/1999/02/22-rdf-syntax-ns#"
   xmlns:svg="http://www.w3.org/2000/svg"
   xmlns="http://www.w3.org/2000/svg"
   xmlns:sodipodi="http://sodipodi.sourceforge.net/DTD/sodipodi-0.dtd"
   xmlns:inkscape="http://www.inkscape.org/namespaces/inkscape"
   width="512"
   height="512"
   viewBox="0 0 512.00001 512.00001"
   id="svg2"
   version="1.1"
   inkscape:version="0.91 r13725"
   sodipodi:docname="icon_512.svg"
   inkscape:export-filename="/Users/kirk/Documents/Projects/BrainingWheels/res/images/icon_128.png"
   inkscape:export-xdpi="22.5"
   inkscape:export-ydpi="22.5">
  <defs
     id="defs4" />
  <sodipodi:namedview
     id="base"
     pagecolor="#ffffff"
     bordercolor="#666666"
     borderopacity="1.0"
     inkscape:pageopacity="0.0"
     inkscape:pageshadow="2"
     inkscape:zoom="0.98994949"
     inkscape:cx="164.82669"
     inkscape:cy="234.28571"
     inkscape:document-units="px"
     inkscape:current-layer="layer1"
     showgrid="false"
     units="px"
     inkscape:window-width="1280"
     inkscape:window-height="751"
     inkscape:window-x="0"
     inkscape:window-y="1"
     inkscape:window-maximized="1" />
  <metadata
     id="metadata7">
    <rdf:RDF>
      <cc:Work
         rdf:about="">
        <dc:format>image/svg+xml</dc:format>
        <dc:type
           rdf:resource="http://purl.org/dc/dcmitype/StillImage" />
        <dc:title />
      </cc:Work>
    </rdf:RDF>
  </metadata>
  <g
     inkscape:label="Layer 1"
     inkscape:groupmode="layer"
     id="layer1"
     transform="translate(0,-540.36216)">
    <rect
       style="opacity:1;fill:#0000ff;fill-opacity:1;stroke:#ff00ff;stroke-width:10;stroke-linecap:round;stroke-linejoin:round;stroke-miterlimit:4;stroke-dasharray:none"
       id="rect4145"
       width="432.17206"
       height="432.17206"
       x="39.913963"
       y="580.27612"
       ry="0" />
    <path
       style="opacity:1;fill:#5599ff;fill-opacity:1;stroke:#ff00ff;stroke-width:6.55167103;stroke-linecap:round;stroke-linejoin:round;stroke-miterlimit:4;stroke-dasharray:none"
       d="m 442.65308,758.59168 c 0,69.05005 -80.48752,35.82621 -183.87935,35.82621 -103.39184,0 -190.535623,33.22384 -190.535623,-35.82621 0,-69.05007 83.815643,-125.02619 187.207483,-125.02619 103.39183,0 187.20749,55.97612 187.20749,125.02619 z"
       id="path4136"
       inkscape:connector-curvature="0"
       sodipodi:nodetypes="sssss" />
    <path
       style="opacity:1;fill:#5599ff;fill-opacity:1;stroke:#ff00ff;stroke-width:6.17080641;stroke-linecap:round;stroke-linejoin:round;stroke-miterlimit:4;stroke-dasharray:none"
       d="m 217.55131,797.62599 c 6.70096,0 13.40192,0 20.10287,0 11.13698,0 20.10287,11.58986 20.10287,25.98622 0,37.01063 -5.33566,74.02129 -14.47333,111.0319 -3.38608,13.71488 -8.96587,25.98632 -20.10286,25.98632 -6.70095,0 -6.16525,0 -12.8662,0 -11.13698,0 -17.74996,-12.1495 -14.67536,-25.98632 8.22389,-37.01061 1.80916,-74.02127 1.80916,-111.0319 0,-14.39636 8.96588,-25.98622 20.10285,-25.98622 z"
       id="rect4142"
       inkscape:connector-curvature="0"
       sodipodi:nodetypes="sssssssss" />
    <path
       style="opacity:1;fill:#5599ff;fill-opacity:1;stroke:#ff00ff;stroke-width:7.69667864;stroke-linecap:round;stroke-linejoin:round;stroke-miterlimit:4;stroke-dasharray:none"
       d="m 257.58244,831.49363 c -0.46117,36.43372 -39.65372,65.97437 -88.56906,65.97437 -48.91535,0 -88.569068,-29.53773 -88.569068,-65.97437 1.2e-5,-36.43666 53.557518,-23.56455 102.299548,-27.67869 34.81144,-2.93831 75.42624,-18.74821 74.83858,27.67869 z"
       id="path4139"
       inkscape:connector-curvature="0"
       sodipodi:nodetypes="sssss" />
  </g>
</svg>
